<?xml version="1.0" standalone="no"?>
<!DOCTYPE svg PUBLIC "-//W3C//DTD SVG 20010904//EN"
 "http://www.w3.org/TR/2001/REC-SVG-20010904/DTD/svg10.dtd">
<svg version="1.0" xmlns="http://www.w3.org/2000/svg"
 width="750.000000pt" height="750.000000pt" viewBox="0 0 750.000000 750.000000"
 preserveAspectRatio="xMidYMid meet">
<metadata>
Created by potrace 1.14, written by Peter Selinger 2001-2017
</metadata>
<g transform="translate(0.000000,750.000000) scale(0.100000,-0.100000)"
fill="#000000" stroke="none">
<path d="M3657 7440 c-196 -126 -339 -331 -392 -565 -19 -83 -22 -297 -6 -370
59 -256 200 -459 415 -595 72 -46 67 -47 177 27 239 159 391 451 388 745 -1
107 -22 240 -45 295 -69 164 -138 267 -246 367 -58 54 -189 146 -209 146 -2 0
-39 -22 -82 -50z"/>
<path d="M2011 6568 c1 -385 8 -470 58 -643 23 -81 156 -353 209 -429 37 -53
590 -616 605 -616 5 0 75 67 155 148 190 192 229 265 233 432 2 120 -28 216
-97 306 -36 47 -1148 1164 -1159 1164 -3 0 -5 -163 -4 -362z"/>
<path d="M4570 6043 c-846 -848 -888 -892 -933 -973 -181 -327 -160 -702 56
-996 l49 -67 256 256 c142 140 462 459 713 709 483 481 514 517 606 703 54
110 109 261 119 330 2 11 9 59 17 107 14 91 23 818 9 818 -3 0 -405 -399 -892
-887z"/>
<path d="M6120 5460 c-58 -10 -139 -27 -180 -39 -92 -25 -360 -155 -444 -216
-34 -24 -188 -168 -341 -320 l-279 -277 154 -153 c165 -162 209 -192 322 -221
136 -35 278 -11 396 66 52 34 1192 1157 1192 1174 0 4 -161 6 -357 5 -289 -1
-378 -5 -463 -19z"/>
<path d="M562 5462 c-4 -1 384 -396 863 -876 579 -582 891 -888 931 -915 281
-185 622 -207 918 -60 72 36 195 117 196 129 0 9 -1333 1344 -1395 1396 -212
180 -491 296 -765 320 -79 7 -730 12 -748 6z"/>
<path d="M625 4220 c-247 -52 -474 -214 -596 -428 l-31 -52 28 -48 c90 -155
228 -281 395 -359 62 -30 160 -63 204 -69 11 -2 31 -6 45 -9 31 -8 242 -8 279
-1 14 3 41 8 60 11 87 14 211 68 311 134 105 69 254 234 290 320 12 31 11 35
-43 114 -113 165 -285 300 -456 357 -115 38 -126 40 -271 45 -95 2 -147 -1
-215 -15z"/>
<path d="M6578 4235 c-2 -1 -21 -5 -43 -9 -104 -15 -240 -69 -355 -141 -97
-60 -300 -295 -300 -346 0 -6 23 -45 50 -89 84 -130 231 -256 369 -317 31 -14
65 -29 76 -34 64 -29 192 -50 308 -49 174 1 229 11 359 65 172 72 321 202 427
372 l33 53 -27 47 c-41 70 -129 176 -194 231 -176 151 -333 211 -568 217 -72
2 -133 2 -135 0z"/>
<path d="M4488 3965 c-2 -3 -22 -7 -44 -10 -69 -11 -147 -37 -230 -76 -80 -38
-204 -121 -204 -137 0 -4 316 -323 703 -708 753 -751 768 -764 972 -867 102
-51 240 -97 365 -123 70 -14 155 -18 483 -21 218 -2 397 -1 397 3 0 16 -1714
1714 -1780 1763 -157 117 -318 171 -526 177 -72 2 -133 1 -136 -1z"/>
<path d="M3031 2773 c-753 -753 -769 -770 -866 -963 -40 -79 -98 -242 -114
-320 -18 -88 -20 -102 -27 -160 -7 -54 -13 -749 -7 -762 2 -4 171 161 377 365
205 205 592 589 859 854 423 421 577 583 577 608 0 4 10 20 21 37 26 36 83
178 94 233 4 22 10 51 13 65 2 14 6 77 7 141 4 156 -32 310 -103 439 -27 49
-111 170 -118 170 -2 0 -323 -318 -713 -707z"/>
<path d="M1915 3263 c-152 -28 -141 -19 -786 -661 -322 -320 -583 -584 -580
-586 11 -6 755 1 786 8 17 3 44 8 60 11 130 22 227 55 372 125 149 72 231 120
284 167 33 29 118 113 397 395 l162 164 -142 141 c-79 77 -166 155 -193 172
-100 64 -234 88 -360 64z"/>
<path d="M4448 2460 c-121 -124 -152 -161 -182 -222 -72 -145 -71 -299 0 -450
34 -70 62 -100 619 -656 321 -320 586 -579 588 -575 6 14 0 716 -7 763 -17
113 -28 163 -46 214 -10 30 -17 56 -14 58 7 8 -154 325 -197 390 -34 51 -597
629 -610 627 -2 0 -70 -67 -151 -149z"/>
<path d="M3688 1598 c-146 -83 -285 -236 -360 -398 -111 -238 -110 -531 4
-770 22 -47 45 -86 49 -88 5 -2 9 -10 9 -18 0 -8 4 -14 9 -14 5 0 12 -8 15
-18 15 -45 181 -198 278 -255 47 -27 48 -27 80 -11 163 84 316 251 391 427 58
138 76 235 72 392 -5 184 -34 289 -123 439 -72 120 -232 275 -339 328 -30 15
-33 14 -85 -14z"/>
</g>
</svg>
